<svg width="24" height="25" viewBox="0 0 24 25" fill="none" xmlns="http://www.w3.org/2000/svg">
<g clip-path="url(#clip0_1049_4836)">
<path d="M21.792 19.4377C21.429 20.2762 20.9994 21.048 20.5016 21.7576C19.8231 22.725 19.2676 23.3946 18.8395 23.7664C18.1758 24.3768 17.4647 24.6894 16.7032 24.7071C16.1566 24.7071 15.4973 24.5516 14.73 24.236C13.9601 23.922 13.2525 23.7664 12.6056 23.7664C11.9271 23.7664 11.1994 23.922 10.4211 24.236C9.64153 24.5516 9.01355 24.716 8.53342 24.7323C7.80322 24.7634 7.07539 24.442 6.3489 23.7664C5.88521 23.362 5.30523 22.6687 4.61043 21.6865C3.86498 20.6376 3.25211 19.4214 2.77198 18.0347C2.25777 16.537 2 15.0867 2 13.6826C2 12.0742 2.34754 10.687 3.04367 9.52448C3.59076 8.59073 4.31859 7.85416 5.22953 7.31344C6.14046 6.77272 7.12473 6.49717 8.18469 6.47954C8.76467 6.47954 9.52524 6.65894 10.4704 7.01152C11.4129 7.36529 12.0181 7.54469 12.2834 7.54469C12.4817 7.54469 13.154 7.33492 14.2937 6.91671C15.3714 6.52887 16.281 6.36828 17.0262 6.43154C19.0454 6.5945 20.5624 7.39047 21.5712 8.8245C19.7654 9.91869 18.8721 11.4512 18.8898 13.4173C18.9061 14.9486 19.4617 16.2229 20.5535 17.2348C21.0483 17.7044 21.6009 18.0673 22.2156 18.3251C22.0823 18.7118 21.9416 19.0821 21.792 19.4377ZM17.161 1.21451C17.161 2.41479 16.7225 3.53548 15.8484 4.57278C14.7937 5.80593 13.5179 6.5185 12.1343 6.40606C12.1167 6.26206 12.1065 6.11051 12.1065 5.95126C12.1065 4.799 12.6081 3.56585 13.4989 2.55758C13.9436 2.04708 14.5092 1.6226 15.1951 1.28399C15.8796 0.95043 16.5269 0.765964 17.1358 0.734375C17.1536 0.894833 17.161 1.0553 17.161 1.2145V1.21451Z" fill="white"/>
</g>
<defs>
<clipPath id="clip0_1049_4836">
<rect width="24" height="24" fill="white" transform="translate(0 0.734375)"/>
</clipPath>
</defs>
</svg>
