<svg width="24" height="25" viewBox="0 0 24 25" fill="none" xmlns="http://www.w3.org/2000/svg">
<g clip-path="url(#clip0_1049_4345)">
<path d="M24 12.7344C24 6.10695 18.6274 0.734375 12 0.734375C5.37258 0.734375 0 6.10695 0 12.7344C0 18.7238 4.3882 23.6884 10.125 24.5886V16.2031H7.07812V12.7344H10.125V10.0906C10.125 7.08313 11.9166 5.42188 14.6576 5.42188C15.9701 5.42188 17.3438 5.65625 17.3438 5.65625V8.60938H15.8306C14.34 8.60938 13.875 9.53445 13.875 10.4844V12.7344H17.2031L16.6711 16.2031H13.875V24.5886C19.6118 23.6884 24 18.7238 24 12.7344Z" fill="white"/>
</g>
<defs>
<clipPath id="clip0_1049_4345">
<rect width="24" height="24" fill="white" transform="translate(0 0.734375)"/>
</clipPath>
</defs>
</svg>
