<svg width="24" height="25" viewBox="0 0 24 25" fill="none" xmlns="http://www.w3.org/2000/svg">
<g clip-path="url(#clip0_1049_4829)">
<path d="M23.7663 13.0106C23.7663 12.1949 23.7001 11.3748 23.559 10.5723H12.2402V15.1932H18.722C18.453 16.6836 17.5888 18.002 16.3233 18.8398V21.8381H20.1903C22.4611 19.7481 23.7663 16.6616 23.7663 13.0106Z" fill="#4285F4"/>
<path d="M12.2401 24.7357C15.4766 24.7357 18.2059 23.673 20.1945 21.8388L16.3276 18.8404C15.2517 19.5724 13.8627 19.9868 12.2445 19.9868C9.11388 19.9868 6.45946 17.8748 5.50705 15.0352H1.5166V18.1261C3.55371 22.1783 7.7029 24.7357 12.2401 24.7357Z" fill="#34A853"/>
<path d="M5.50277 15.0351C5.00011 13.5447 5.00011 11.9309 5.50277 10.4406V7.34961H1.51674C-0.185266 10.7404 -0.185266 14.7352 1.51674 18.126L5.50277 15.0351Z" fill="#FBBC04"/>
<path d="M12.2401 5.48404C13.9509 5.45758 15.6044 6.10134 16.8434 7.28304L20.2695 3.85699C18.1001 1.81988 15.2208 0.699909 12.2401 0.735184C7.7029 0.735184 3.55371 3.2926 1.5166 7.34918L5.50264 10.4401C6.45064 7.59611 9.10947 5.48404 12.2401 5.48404Z" fill="#EA4335"/>
</g>
<defs>
<clipPath id="clip0_1049_4829">
<rect width="24" height="24" fill="white" transform="translate(0 0.734375)"/>
</clipPath>
</defs>
</svg>
