<svg width="24" height="24" viewBox="0 0 24 24" fill="none" xmlns="http://www.w3.org/2000/svg">
<path d="M12 0C5.37752 0 0.00927734 5.3724 0.00927734 12C0.00927734 18.6276 5.37752 24 12 24C18.6225 24 23.9907 18.6276 23.9907 12C23.9907 5.3724 18.6225 0 12 0Z" fill="#03A9F4"/>
<path d="M19.1945 7.87649C18.6657 8.1109 17.996 8.33093 17.3959 8.40408C18.0062 8.04196 18.9745 7.28774 19.1945 6.60547C18.6244 6.94061 17.5932 7.29853 16.9205 7.42803C15.4708 5.89082 12.0001 6.45858 12.0001 9.60315V10.8022C9.60195 10.8022 7.26376 8.97543 5.80869 7.205C4.45733 9.48744 6.92262 11.2153 7.20381 11.4018C6.71998 11.3868 5.80389 11.0175 5.4052 10.8022C5.4052 10.8118 5.4052 10.8238 5.4052 10.8364C5.4052 12.2555 6.40103 13.219 7.75058 13.4875C7.50417 13.5553 7.20381 13.7999 6.0479 13.7999C6.42321 14.96 8.30995 15.5733 9.60195 15.5985C8.03296 16.815 5.32966 16.8449 4.80566 16.7838C10.1949 19.9547 18.3965 17.0914 17.9847 9.30338C18.565 8.8945 18.8 8.46643 19.1945 7.87649Z" fill="white"/>
</svg>
