<svg width="24" height="25" viewBox="0 0 24 25" fill="none" xmlns="http://www.w3.org/2000/svg">
<g clip-path="url(#clip0_1049_975)">
<path d="M7.55016 22.4851C16.6045 22.4851 21.5583 14.9818 21.5583 8.47697C21.5583 8.26603 21.5536 8.05041 21.5442 7.83947C22.5079 7.14257 23.3395 6.27936 24 5.29041C23.1025 5.68971 22.1496 5.95049 21.1739 6.06384C22.2013 5.44802 22.9705 4.48058 23.3391 3.34087C22.3726 3.91366 21.3156 4.31772 20.2134 4.53572C19.4708 3.74667 18.489 3.22422 17.4197 3.04916C16.3504 2.87409 15.2532 3.05616 14.2977 3.5672C13.3423 4.07825 12.5818 4.88981 12.1338 5.87642C11.6859 6.86303 11.5754 7.96972 11.8195 9.02541C9.86249 8.9272 7.94794 8.41881 6.19998 7.53321C4.45203 6.6476 2.90969 5.40454 1.67297 3.88462C1.0444 4.96835 0.852057 6.25075 1.13503 7.4712C1.418 8.69164 2.15506 9.75855 3.19641 10.4551C2.41463 10.4303 1.64998 10.2198 0.965625 9.84103V9.90197C0.964925 11.0393 1.3581 12.1417 2.07831 13.0219C2.79852 13.9021 3.80132 14.5057 4.91625 14.7301C4.19206 14.9282 3.43198 14.9571 2.69484 14.8145C3.00945 15.7925 3.62157 16.648 4.44577 17.2614C5.26997 17.8749 6.26512 18.2157 7.29234 18.2363C5.54842 19.6062 3.39417 20.3492 1.17656 20.3457C0.783287 20.3451 0.390399 20.321 0 20.2735C2.25286 21.7189 4.87353 22.4865 7.55016 22.4851Z" fill="white"/>
</g>
<defs>
<clipPath id="clip0_1049_975">
<rect width="24" height="24" fill="white" transform="translate(0 0.734375)"/>
</clipPath>
</defs>
</svg>
