<svg width="25" height="24" viewBox="0 0 25 24" fill="none" xmlns="http://www.w3.org/2000/svg">
<path d="M17.0002 3.56V4.01584L17.4541 4.05787C18.7109 4.17424 19.5898 4.60009 20.1788 5.22534C20.7689 5.8518 21.1161 6.72969 21.211 7.83991C21.2106 7.84 21.2104 7.84 21.2102 7.84H21.2102H4.29185C4.29122 7.83968 4.29042 7.83919 4.2896 7.83853C4.3846 6.72896 4.73181 5.85155 5.32168 5.22534C5.91066 4.60009 6.78955 4.17424 8.04633 4.05787L8.50023 4.01584V3.56V2C8.50023 1.86614 8.61637 1.75 8.75023 1.75C8.88409 1.75 9.00023 1.86614 9.00023 2V3.5V4H9.50023H16.0002H16.5002V3.5V2C16.5002 1.86614 16.6164 1.75 16.7502 1.75C16.8841 1.75 17.0002 1.86614 17.0002 2V3.56Z" fill="#5E6EC3" stroke="#5E6EC3"/>
<path d="M10.2945 18.5815L10.3093 18.5682L10.323 18.5537C10.585 18.2772 10.75 17.8962 10.75 17.4998C10.75 17.1035 10.585 16.7225 10.323 16.446L10.3093 16.4315L10.2945 16.4182C10.154 16.2918 9.99625 16.1908 9.82231 16.1183C9.45923 15.967 9.04077 15.967 8.67769 16.1183C8.50375 16.1908 8.34601 16.2918 8.20552 16.4182L8.19072 16.4315L8.17702 16.446C7.91502 16.7225 7.75 17.1035 7.75 17.4998C7.75 17.8962 7.91502 18.2772 8.17702 18.5537L8.19072 18.5682L8.20552 18.5815C8.34601 18.7079 8.50375 18.8089 8.67769 18.8814C8.84884 18.9527 9.04415 18.9998 9.25 18.9998C9.45585 18.9998 9.65116 18.9527 9.82231 18.8814C9.99625 18.8089 10.154 18.7079 10.2945 18.5815ZM10.2945 15.0815L10.314 15.0639L10.3316 15.0443C10.4581 14.9038 10.5591 14.7461 10.6315 14.5722C10.7028 14.401 10.75 14.2057 10.75 13.9998C10.75 13.794 10.7028 13.5987 10.6315 13.4275C10.5591 13.2536 10.4581 13.0959 10.3316 12.9554L10.314 12.9358L10.2945 12.9182C10.154 12.7918 9.99625 12.6908 9.82231 12.6183C9.45923 12.467 9.04077 12.467 8.67769 12.6183C8.50375 12.6908 8.34601 12.7918 8.20552 12.9182L8.18596 12.9358L8.16835 12.9554C8.04191 13.0959 7.94094 13.2536 7.86846 13.4275C7.79715 13.5987 7.75 13.794 7.75 13.9998C7.75 14.2057 7.79715 14.401 7.86846 14.5722C7.94094 14.7461 8.04191 14.9038 8.16835 15.0443L8.18596 15.0639L8.20552 15.0815C8.34601 15.2079 8.50375 15.3089 8.67769 15.3814C8.84884 15.4527 9.04415 15.4998 9.25 15.4998C9.45585 15.4998 9.65116 15.4527 9.82231 15.3814C9.99625 15.3089 10.154 15.2079 10.2945 15.0815ZM13.7945 15.0815L13.8093 15.0682L13.823 15.0537C14.085 14.7772 14.25 14.3962 14.25 13.9998C14.25 13.6035 14.085 13.2225 13.823 12.946L13.8093 12.9315L13.7945 12.9182C13.6561 12.7937 13.501 12.6938 13.3302 12.6216C12.9625 12.4559 12.5375 12.4559 12.1698 12.6216C11.999 12.6938 11.8439 12.7937 11.7055 12.9182L11.6907 12.9315L11.677 12.946C11.415 13.2225 11.25 13.6035 11.25 13.9998C11.25 14.3962 11.415 14.7772 11.677 15.0537L11.6907 15.0682L11.7055 15.0815C11.846 15.2079 12.0038 15.3089 12.1777 15.3814C12.3488 15.4527 12.5441 15.4998 12.75 15.4998C12.9559 15.4998 13.1512 15.4527 13.3223 15.3814C13.4962 15.3089 13.654 15.2079 13.7945 15.0815ZM4.75 10.3398H20.75C21.0239 10.3398 21.25 10.566 21.25 10.8398V16.9998C21.25 18.4232 20.8941 19.5329 20.1961 20.2846C19.5043 21.0296 18.4047 21.4998 16.75 21.4998H8.75C7.0953 21.4998 5.99565 21.0296 5.3039 20.2846C4.60591 19.5329 4.25 18.4232 4.25 16.9998V10.8398C4.25 10.566 4.47614 10.3398 4.75 10.3398Z" fill="#5E6EC3" stroke="#5E6EC3"/>
</svg>
