<svg width="25" height="24" viewBox="0 0 25 24" fill="none" xmlns="http://www.w3.org/2000/svg">
<path d="M10.2907 3.15016L10.2911 3.14985C11.3753 2.27904 13.1156 2.28414 14.216 3.16073C14.2161 3.16084 14.2163 3.16094 14.2164 3.16105L20.7621 8.39756C20.7626 8.39802 20.7632 8.39849 20.7638 8.39895C21.141 8.70711 21.4677 9.18942 21.6784 9.74099C21.8891 10.2922 21.9676 10.8699 21.8943 11.351L20.6354 18.8845C20.6353 18.885 20.6352 18.8855 20.6351 18.8859C20.3855 20.3188 18.9912 21.5 17.548 21.5H6.94801C5.48354 21.5 4.12054 20.3476 3.87098 18.8965C3.87092 18.8961 3.87087 18.8958 3.87081 18.8955L2.61117 11.3576L2.61098 11.3565C2.52883 10.8718 2.60256 10.293 2.81269 9.74192C3.02281 9.19094 3.35353 8.70909 3.73985 8.40086L3.74072 8.40016L10.2907 3.15016ZM12.248 19.25C12.9342 19.25 13.498 18.6862 13.498 18V15C13.498 14.3139 12.9342 13.75 12.248 13.75C11.5619 13.75 10.998 14.3139 10.998 15V18C10.998 18.6862 11.5619 19.25 12.248 19.25Z" fill="#5E6EC3" stroke="#5E6EC3"/>
</svg>
