<svg width="25" height="24" viewBox="0 0 25 24" fill="none" xmlns="http://www.w3.org/2000/svg">
<path d="M20.7481 5.85014C20.7481 7.20876 19.6467 8.31014 18.2881 8.31014C16.9295 8.31014 15.8281 7.20876 15.8281 5.85014C15.8281 4.49152 16.9295 3.39014 18.2881 3.39014C19.6467 3.39014 20.7481 4.49152 20.7481 5.85014Z" fill="#5E6EC3" stroke="#5E6EC3"/>
<path d="M9.67 5.85014C9.67 7.20876 8.56862 8.31014 7.21 8.31014C5.85138 8.31014 4.75 7.20876 4.75 5.85014C4.75 4.49152 5.85138 3.39014 7.21 3.39014C8.56862 3.39014 9.67 4.49152 9.67 5.85014Z" fill="#5E6EC3" stroke="#5E6EC3"/>
<path d="M18.2881 21.1099C19.9229 21.1099 21.2481 19.7847 21.2481 18.1499C21.2481 16.5152 19.9229 15.1899 18.2881 15.1899C16.6534 15.1899 15.3281 16.5152 15.3281 18.1499C15.3281 19.7847 16.6534 21.1099 18.2881 21.1099Z" fill="#5E6EC3"/>
<path d="M7.21 21.1099C8.84476 21.1099 10.17 19.7847 10.17 18.1499C10.17 16.5152 8.84476 15.1899 7.21 15.1899C5.57524 15.1899 4.25 16.5152 4.25 18.1499C4.25 19.7847 5.57524 21.1099 7.21 21.1099Z" fill="#5E6EC3"/>
</svg>
