<svg width="25" height="24" viewBox="0 0 25 24" fill="none" xmlns="http://www.w3.org/2000/svg">
<path d="M18.2881 8.31014C19.6467 8.31014 20.7481 7.20876 20.7481 5.85014C20.7481 4.49152 19.6467 3.39014 18.2881 3.39014C16.9295 3.39014 15.8281 4.49152 15.8281 5.85014C15.8281 7.20876 16.9295 8.31014 18.2881 8.31014Z" stroke="#091E42" stroke-width="1.5" stroke-miterlimit="10" stroke-linecap="round" stroke-linejoin="round"/>
<path d="M7.21001 8.31014C8.56863 8.31014 9.67 7.20876 9.67 5.85014C9.67 4.49152 8.56863 3.39014 7.21001 3.39014C5.85139 3.39014 4.75 4.49152 4.75 5.85014C4.75 7.20876 5.85139 8.31014 7.21001 8.31014Z" stroke="#091E42" stroke-width="1.5" stroke-miterlimit="10" stroke-linecap="round" stroke-linejoin="round"/>
<path d="M18.2881 20.6099C19.6467 20.6099 20.7481 19.5086 20.7481 18.1499C20.7481 16.7913 19.6467 15.6899 18.2881 15.6899C16.9295 15.6899 15.8281 16.7913 15.8281 18.1499C15.8281 19.5086 16.9295 20.6099 18.2881 20.6099Z" stroke="#091E42" stroke-width="1.5" stroke-miterlimit="10" stroke-linecap="round" stroke-linejoin="round"/>
<path d="M7.21001 20.6099C8.56863 20.6099 9.67 19.5086 9.67 18.1499C9.67 16.7913 8.56863 15.6899 7.21001 15.6899C5.85139 15.6899 4.75 16.7913 4.75 18.1499C4.75 19.5086 5.85139 20.6099 7.21001 20.6099Z" stroke="#091E42" stroke-width="1.5" stroke-miterlimit="10" stroke-linecap="round" stroke-linejoin="round"/>
</svg>
