<svg width="25" height="24" viewBox="0 0 25 24" fill="none" xmlns="http://www.w3.org/2000/svg">
<path d="M21.75 5C21.75 6.38071 20.6307 7.5 19.25 7.5C17.8693 7.5 16.75 6.38071 16.75 5C16.75 3.61929 17.8693 2.5 19.25 2.5C20.6307 2.5 21.75 3.61929 21.75 5Z" fill="#5E6EC3" stroke="#5E6EC3"/>
<path d="M19.9111 9.94973C19.9547 9.94335 20.0064 9.93572 20.0608 9.92557C20.0747 9.92383 20.0867 9.92182 20.0965 9.92H20.0979L20.145 9.91089C20.4664 9.84869 20.75 10.0843 20.75 10.4V16.48C20.75 16.5983 20.7415 16.7206 20.7316 16.8502C20.7217 16.9684 20.7131 17.0602 20.6968 17.1578L20.6934 17.178L20.6917 17.1985C20.6838 17.2934 20.6675 17.3939 20.6481 17.5006L20.6464 17.5095L20.6451 17.5184C20.4832 18.6383 20.0516 19.5212 19.4092 20.1624C18.7668 20.8037 17.8837 21.2332 16.7681 21.3952L16.7593 21.3965L16.7506 21.3981C16.6439 21.4175 16.5434 21.4338 16.4485 21.4417L16.428 21.4434L16.4078 21.4468C16.3102 21.4631 16.2184 21.4717 16.1002 21.4816C15.9706 21.4915 15.8483 21.5 15.73 21.5H7.77C7.65172 21.5 7.52944 21.4915 7.39976 21.4816C7.28163 21.4717 7.1898 21.4631 7.0922 21.4468L7.07197 21.4434L7.05152 21.4417C6.95663 21.4338 6.85613 21.4175 6.74944 21.3981L6.74068 21.3965L6.73186 21.3952C5.61628 21.2332 4.73319 20.8037 4.09075 20.1624C3.44842 19.5212 3.01682 18.6383 2.85485 17.5184L2.85355 17.5095L2.85193 17.5006C2.83254 17.3939 2.81618 17.2934 2.80827 17.1985L2.80657 17.178L2.8032 17.1578C2.78692 17.0601 2.77826 16.9683 2.7684 16.8501C2.75844 16.7204 2.75 16.5982 2.75 16.48V8.52C2.75 8.40177 2.75844 8.27955 2.7684 8.14995C2.77826 8.03173 2.78692 7.93986 2.8032 7.8422L2.80657 7.82197L2.80827 7.80152C2.81618 7.70663 2.83254 7.60613 2.85193 7.49944L2.85355 7.49053L2.85485 7.48157C3.01682 6.36166 3.44842 5.47883 4.09075 4.83761C4.73319 4.19627 5.61628 3.76682 6.73186 3.60481L6.74068 3.60353L6.74944 3.60193C6.85613 3.58254 6.95663 3.56618 7.05152 3.55827L7.07197 3.55657L7.0922 3.5532C7.18986 3.53692 7.28173 3.52826 7.39995 3.5184C7.52955 3.50844 7.65177 3.5 7.77 3.5H13.85C14.1657 3.5 14.4013 3.7836 14.3391 4.10499L14.33 4.15206V4.15353C14.3282 4.16329 14.3262 4.17532 14.3244 4.18925C14.3143 4.24362 14.3066 4.29528 14.3003 4.33885L14.2987 4.34935C14.2915 4.3985 14.2857 4.4388 14.2781 4.48056L14.2743 4.50145L14.2723 4.5226C14.2276 4.99142 14.2502 5.48971 14.3493 5.99601L14.3518 6.00871L14.3549 6.02127C14.3595 6.03944 14.3643 6.05954 14.3694 6.08117C14.3891 6.16343 14.414 6.2679 14.4504 6.37336C14.5419 6.73978 14.6862 7.08187 14.8706 7.39912C14.9335 7.522 15.0116 7.64362 15.0697 7.73399C15.0799 7.74982 15.0894 7.76469 15.0982 7.77844L15.1029 7.78594L15.108 7.79326C15.4727 8.3237 15.9263 8.77734 16.4567 9.14202L16.4641 9.14706L16.4716 9.15183C16.4853 9.16058 16.5002 9.17013 16.516 9.1803C16.6064 9.23838 16.728 9.31655 16.8509 9.37937C17.1681 9.56376 17.5102 9.70807 17.8766 9.79963C17.9821 9.83596 18.0866 9.86091 18.1688 9.88056C18.1905 9.88573 18.2106 9.89053 18.2287 9.89507L18.2413 9.89821L18.254 9.9007C18.7603 9.99975 19.2586 10.0224 19.7274 9.97775L19.7485 9.97573L19.7694 9.97193C19.8112 9.96435 19.8515 9.95846 19.9006 9.95128L19.9111 9.94973ZM12 12H7C6.31386 12 5.75 12.5639 5.75 13.25C5.75 13.9361 6.31386 14.5 7 14.5H12C12.6861 14.5 13.25 13.9361 13.25 13.25C13.25 12.5639 12.6861 12 12 12ZM7 18.5H16C16.6861 18.5 17.25 17.9361 17.25 17.25C17.25 16.5639 16.6861 16 16 16H7C6.31386 16 5.75 16.5639 5.75 17.25C5.75 17.9361 6.31386 18.5 7 18.5Z" fill="#5E6EC3" stroke="#5E6EC3"/>
</svg>
